<svg width="60" height="36" viewBox="0 0 60 36" fill="none" xmlns="http://www.w3.org/2000/svg">
<path fill-rule="evenodd" clip-rule="evenodd" d="M26.2468 3.86377C27.4609 3.66529 28.3192 3.60373 29.9952 3.59906L30.0048 3.59903C31.6808 3.60371 32.5391 3.66529 33.7532 3.86377C34.6375 4.00832 35.4025 4.15225 35.4532 4.18361C35.504 4.21498 36.0115 4.37569 36.5812 4.54077C37.1508 4.70584 37.7356 4.91795 37.8807 5.01213C38.0258 5.10631 38.3875 5.26509 38.6844 5.36499C38.9814 5.46488 39.4505 5.5826 39.7269 5.62659C40.177 5.69822 40.2628 5.67065 40.5488 5.36247C40.7153 5.18312 40.9476 4.86355 41.0383 4.65973L41.0335 4.64784C43.4575 0.72819 45.4531 -0.27327 50.2725 0.0594609C52.7257 0.23111 55.6768 1.70841 57.8831 4.3624C59.5837 6.40833 60.127 8.49829 59.9759 10.2456C59.8234 11.1711 59.3395 11.5 58.7137 11.8273C58.1208 12.1455 57.2909 12.1932 56.5276 12.1463C56.4766 12.1457 56.4257 12.1366 56.3748 12.1275L56.3625 12.1253C56.3549 12.1239 56.3473 12.1226 56.3397 12.1213C56.3261 12.119 56.3125 12.1168 56.2988 12.1149C57.2126 13.3106 58.0322 15.098 57.3427 16.2179C56.9743 16.9401 55.5773 16.9622 54.7378 16.9047C54.2146 16.8509 53.7032 16.7208 53.214 16.5622C53.5667 17.2067 53.7763 17.9546 53.29 18.4938C53.2568 18.5317 53.2237 18.56 53.1907 18.5883C53.1247 18.6353 53.0586 18.6823 52.9819 18.7101C52.8067 18.7655 52.6102 18.7727 52.4251 18.7419C51.313 18.6622 49.9941 17.5861 49.098 16.7537C49.2019 17.2041 49.2291 17.6824 49.0288 18.0241C48.9954 18.0811 48.9402 18.1378 48.8742 18.1848C48.8081 18.2318 48.7204 18.2691 48.6438 18.2873C48.4471 18.3137 48.2508 18.3019 48.055 18.2518C47.9927 18.234 47.9315 18.2145 47.8715 18.1933C47.8848 18.2377 47.8981 18.2819 47.9113 18.3257C48.1089 18.9797 48.335 20.0275 48.4139 20.6541C48.5006 21.3434 48.5294 22.4137 48.4867 23.3643C48.4331 24.5569 48.3395 25.1951 48.0982 26.0143C47.9233 26.6077 47.5955 27.4176 47.3698 27.814C47.144 28.2103 46.9197 28.5941 46.8712 28.6667L46.4679 29.271C46.2945 29.5307 45.6386 30.2272 45.0103 30.8187C44.2835 31.503 43.4106 32.17 42.6104 32.6528C41.881 33.0928 40.7042 33.6558 39.8086 33.9933C38.9594 34.3133 37.5896 34.7191 36.7647 34.8952C35.9399 35.0713 34.4551 35.3121 33.4653 35.4305C32.5022 35.5456 30.9683 35.6458 30.0048 35.6576L30.0031 35.6576L30.0024 35.6576L30.0021 35.6576C30.0014 35.6576 30.0007 35.6576 30 35.6576L29.9952 35.6577C29.0317 35.6459 27.4978 35.5456 26.5347 35.4305C25.5449 35.3121 24.0601 35.0713 23.2353 34.8952C22.4104 34.7191 21.0406 34.3133 20.1914 33.9933C19.2958 33.6558 18.119 33.0928 17.3896 32.6528C16.5894 32.17 15.7165 31.503 14.9897 30.8187C14.3614 30.2272 13.7055 29.5307 13.5321 29.271C13.3587 29.0112 13.1772 28.7393 13.1288 28.6667C13.0803 28.5941 12.856 28.2103 12.6302 27.814C12.4045 27.4176 12.0767 26.6077 11.9018 26.0143C11.6605 25.1951 11.5669 24.5569 11.5133 23.3643C11.4706 22.4137 11.4994 21.3434 11.5861 20.6541C11.665 20.0275 11.8911 18.9797 12.0887 18.3257C12.1019 18.2819 12.1152 18.2377 12.1285 18.1933C12.0685 18.2145 12.0073 18.234 11.945 18.2518C11.7492 18.3019 11.5529 18.3137 11.3562 18.2873C11.2796 18.2691 11.1919 18.2318 11.1258 18.1848C11.0598 18.1378 11.0046 18.0811 10.9712 18.0241C10.7709 17.6824 10.7981 17.2041 10.902 16.7537C10.0059 17.5861 8.68705 18.6622 7.57495 18.7419C7.38979 18.7727 7.19329 18.7655 7.01807 18.7101C6.94138 18.6823 6.87532 18.6353 6.80933 18.5883C6.77626 18.56 6.7432 18.5317 6.71003 18.4938C6.22369 17.9546 6.43331 17.2067 6.78598 16.5622C6.29677 16.7208 5.78539 16.8509 5.26224 16.9047C4.42268 16.9622 3.02568 16.9401 2.65726 16.2179C1.9678 15.098 2.78743 13.3106 3.70117 12.1149C3.67586 12.1184 3.65056 12.1229 3.62527 12.1275C3.57434 12.1366 3.52339 12.1457 3.47238 12.1463C2.70907 12.1932 1.87921 12.1455 1.28629 11.8273C0.660534 11.5 0.176612 11.1711 0.0240871 10.2456C-0.126995 8.49829 0.416347 6.40833 2.11686 4.3624C4.32324 1.70841 7.2743 0.23111 9.72753 0.0594609C14.5469 -0.27327 16.5425 0.72819 18.9665 4.64784L18.9617 4.65973C19.0524 4.86355 19.2847 5.18312 19.4512 5.36247C19.7373 5.67065 19.823 5.69822 20.2731 5.62659C20.5495 5.5826 21.0186 5.46488 21.3156 5.36499C21.6125 5.26509 21.9742 5.10631 22.1193 5.01213C22.2644 4.91795 22.8492 4.70584 23.4188 4.54077C23.9885 4.37569 24.496 4.21498 24.5468 4.18361C24.5975 4.15225 25.3625 4.00832 26.2468 3.86377ZM23.1658 19.4655C23.1658 19.1511 23.1054 18.8507 22.9954 18.5756C22.9928 18.5681 22.9903 18.5609 22.9877 18.554C22.9753 18.5213 22.9588 18.4848 22.9391 18.4459C22.5558 17.6304 21.7269 17.0659 20.7662 17.0659C19.4409 17.0659 18.3666 18.1402 18.3666 19.4655C18.3666 20.7908 19.4409 21.8651 20.7662 21.8651C22.0915 21.8651 23.1658 20.7908 23.1658 19.4655ZM37.1668 18.2621C37.5822 17.5468 38.3566 17.0659 39.2433 17.0659C40.5686 17.0659 41.6429 18.1402 41.6429 19.4655C41.6429 20.7908 40.5686 21.8651 39.2433 21.8651C37.918 21.8651 36.8437 20.7908 36.8437 19.4655C36.8437 19.1914 36.8896 18.928 36.9743 18.6826C36.9863 18.6326 36.9991 18.5891 37.0123 18.554C37.043 18.4729 37.0988 18.369 37.1668 18.2621ZM26.8849 19.5747C27.6864 18.09 28.7052 17.2127 29.7734 17.0853C29.9943 17.0598 29.9998 17.0598 30.217 17.0831C30.9894 17.1681 31.6686 17.5823 32.3314 18.3704C32.8134 18.946 33.1822 19.5726 33.5291 20.4095C33.9326 21.3845 34.1937 22.4678 34.2942 23.5766C34.3343 24.0269 34.3343 24.8277 34.2923 25.2292C34.2394 25.7539 34.1536 26.2127 34.0258 26.646C33.4506 28.6172 32.0922 29.9299 30.4179 30.1274C30.1385 30.1614 29.5798 30.1402 29.3151 30.085C28.7856 29.9766 28.351 29.7918 27.9146 29.4902C27.1149 28.9379 26.5306 28.152 26.1344 27.0878C25.4936 25.3758 25.541 23.1645 26.2622 21.0128C26.3846 20.6453 26.7023 19.9146 26.8849 19.5747Z" fill="#193176"/>
</svg>
