<svg width="190" height="81" viewBox="0 0 190 81" fill="none" xmlns="http://www.w3.org/2000/svg">
<path d="M74.8539 51.8593L72.9979 46.2593H64.1979L62.3739 51.8593H60.3899L67.6219 30.0993H69.7019L76.9659 51.8593H74.8539ZM66.1819 40.2433L64.8059 44.4033H72.3579L70.9819 40.2433L68.5819 32.8193L66.1819 40.2433ZM81.8936 43.4433C81.8936 48.0086 83.643 50.2913 87.1416 50.2913C87.8883 50.2913 88.6243 50.2059 89.3496 50.0353C90.075 49.8646 90.9176 49.5553 91.8776 49.1073L92.6136 50.8673C91.6536 51.3153 90.715 51.6459 89.7976 51.8593C88.8803 52.0726 87.9843 52.1793 87.1096 52.1793C84.7203 52.1793 82.8856 51.4219 81.6056 49.9073C80.347 48.3926 79.7176 46.2379 79.7176 43.4433V38.5153C79.7176 35.7206 80.347 33.5659 81.6056 32.0513C82.8856 30.5366 84.7203 29.7793 87.1096 29.7793C87.9843 29.7793 88.9016 29.8859 89.8616 30.0993C90.8216 30.3126 91.739 30.6433 92.6136 31.0913L91.9096 32.8513C90.3096 32.0619 88.7096 31.6673 87.1096 31.6673C83.6323 31.6673 81.8936 33.9499 81.8936 38.5153V43.4433ZM94.2894 31.9873V30.0993H109.425V31.9873H102.897V51.8593H100.817V31.9873H94.2894ZM125.362 49.9713V51.8593H113.522V30.0993H125.042V31.9873H115.602V39.8913H124.082V41.7793H115.602V49.9713H125.362ZM130.012 30.0993H132.188V44.0513C132.188 45.9926 132.583 47.5179 133.372 48.6273C134.183 49.7366 135.442 50.2913 137.148 50.2913C138.876 50.2913 140.135 49.7366 140.924 48.6273C141.714 47.5179 142.108 45.9926 142.108 44.0513V30.0993H144.284V44.0513C144.284 46.6326 143.687 48.6379 142.492 50.0673C141.319 51.4753 139.538 52.1793 137.148 52.1793C134.759 52.1793 132.967 51.4753 131.772 50.0673C130.599 48.6379 130.012 46.6326 130.012 44.0513V30.0993ZM153.321 42.9633V51.8593H151.241V30.0993H157.737C159.7 30.0993 161.214 30.6219 162.281 31.6673C163.369 32.6913 163.913 34.0779 163.913 35.8273V37.2033C163.913 38.5046 163.604 39.6246 162.985 40.5633C162.366 41.5019 161.47 42.1739 160.297 42.5793C161.236 44.0513 162.11 45.5659 162.921 47.1233C163.753 48.6806 164.521 50.2593 165.225 51.8593H162.793C162.153 50.3233 161.449 48.8193 160.681 47.3473C159.913 45.8539 159.092 44.3926 158.217 42.9633H153.321ZM157.737 31.9873H153.321V41.0753H157.737C158.932 41.0753 159.892 40.7339 160.617 40.0513C161.364 39.3473 161.737 38.3979 161.737 37.2033V35.8273C161.737 34.6113 161.364 33.6726 160.617 33.0113C159.892 32.3286 158.932 31.9873 157.737 31.9873ZM174.559 50.3553C175.988 50.3553 177.097 50.0246 177.887 49.3633C178.676 48.6806 179.071 47.6993 179.071 46.4193C179.071 45.3526 178.783 44.4353 178.207 43.6673C177.652 42.8779 176.745 42.3126 175.487 41.9713L172.927 41.2673C171.241 40.7979 170.025 40.0726 169.279 39.0913C168.532 38.1099 168.159 36.9259 168.159 35.5393C168.159 34.5153 168.361 33.5659 168.767 32.6913C169.172 31.8166 169.833 31.1126 170.751 30.5793C171.689 30.0459 172.959 29.7793 174.559 29.7793C175.476 29.7793 176.447 29.8966 177.471 30.1313C178.516 30.3446 179.551 30.6966 180.575 31.1873L179.871 32.9793C178.847 32.4886 177.897 32.1366 177.023 31.9233C176.148 31.7099 175.327 31.6033 174.559 31.6033C173.193 31.6033 172.137 31.9019 171.391 32.4993C170.644 33.0966 170.271 34.0566 170.271 35.3793C170.271 36.2966 170.516 37.0966 171.007 37.7793C171.497 38.4406 172.393 38.9526 173.695 39.3153L176.255 40.0193C177.897 40.4673 179.124 41.2139 179.935 42.2593C180.767 43.3046 181.183 44.6059 181.183 46.1633C181.183 47.9339 180.66 49.3846 179.615 50.5153C178.591 51.6246 176.905 52.1793 174.559 52.1793C173.556 52.1793 172.489 52.0619 171.359 51.8273C170.228 51.5926 169.097 51.2193 167.967 50.7073L168.639 48.9473C169.727 49.4593 170.74 49.8219 171.679 50.0353C172.617 50.2486 173.577 50.3553 174.559 50.3553Z" fill="black"/>
<path d="M107.141 70.5625V59.6825H110.517C111.765 59.6825 112.725 60.0611 113.397 60.8185C114.069 61.5651 114.405 62.5998 114.405 63.9225V66.3065C114.405 67.6398 114.069 68.6851 113.397 69.4425C112.725 70.1891 111.765 70.5625 110.517 70.5625H107.141ZM110.485 60.9945H108.533V69.2665H110.485C112.138 69.2665 112.965 68.2798 112.965 66.3065V63.9225C112.965 61.9705 112.138 60.9945 110.485 60.9945ZM117.105 59.6825H118.545V66.6585C118.545 67.5331 118.726 68.2158 119.089 68.7065C119.462 69.1971 120.038 69.4425 120.817 69.4425C121.606 69.4425 122.182 69.1971 122.545 68.7065C122.907 68.2158 123.089 67.5331 123.089 66.6585V59.6825H124.529V66.6585C124.529 67.9278 124.219 68.9251 123.601 69.6505C122.982 70.3651 122.054 70.7225 120.817 70.7225C119.569 70.7225 118.635 70.3651 118.017 69.6505C117.409 68.9251 117.105 67.9278 117.105 66.6585V59.6825ZM132.468 64.2905L133.236 68.6905L135.748 59.6825H137.044L139.556 68.6425L140.356 64.2905L141.3 59.6825H142.676L140.276 70.5625H138.868L136.372 61.6665L133.876 70.5625H132.452L130.068 59.6825H131.524L132.468 64.2905ZM151.034 69.2665V70.5625H144.954V59.6825H150.874V60.9945H146.346V64.4025H150.394V65.7145H146.346V69.2665H151.034ZM153.454 70.5625V59.6825H156.654C157.699 59.6825 158.467 59.9385 158.958 60.4505C159.459 60.9518 159.71 61.6291 159.71 62.4825V62.8345C159.71 63.3038 159.603 63.7198 159.39 64.0825C159.176 64.4451 158.867 64.7331 158.462 64.9465C159.027 65.1278 159.454 65.4265 159.742 65.8425C160.04 66.2478 160.19 66.7385 160.19 67.3145V67.6665C160.19 68.5411 159.934 69.2451 159.422 69.7785C158.92 70.3011 158.131 70.5625 157.054 70.5625H153.454ZM156.654 60.9625H154.846V64.4025H156.654C157.187 64.4025 157.587 64.2691 157.854 64.0025C158.131 63.7251 158.27 63.3465 158.27 62.8665V62.4825C158.27 62.0131 158.131 61.6451 157.854 61.3785C157.587 61.1011 157.187 60.9625 156.654 60.9625ZM157.054 65.6825H154.846V69.2985H157.054C157.619 69.2985 158.04 69.1545 158.318 68.8665C158.606 68.5785 158.75 68.1785 158.75 67.6665V67.2825C158.75 66.7918 158.606 66.4025 158.318 66.1145C158.04 65.8265 157.619 65.6825 157.054 65.6825ZM163.389 70.5625H161.917V69.1065H163.389V70.5625ZM171.235 65.9865H167.283V70.5625H165.891V59.6825H171.715V60.9945H167.283V64.6745H171.235V65.9865ZM175.377 66.3065V70.5625H173.985V59.6825H177.393C178.417 59.6825 179.206 59.9545 179.761 60.4985C180.326 61.0318 180.609 61.7465 180.609 62.6425V63.3305C180.609 63.9705 180.459 64.5251 180.161 64.9945C179.873 65.4638 179.457 65.8105 178.913 66.0345C179.371 66.7705 179.798 67.5171 180.193 68.2745C180.587 69.0318 180.95 69.7945 181.281 70.5625H179.681C179.073 69.1118 178.363 67.6931 177.553 66.3065H175.377ZM177.393 60.9625H175.377V65.0265H177.393C177.937 65.0265 178.369 64.8771 178.689 64.5785C179.009 64.2691 179.169 63.8531 179.169 63.3305V62.6425C179.169 62.1091 179.009 61.6985 178.689 61.4105C178.369 61.1118 177.937 60.9625 177.393 60.9625Z" fill="black"/>
<path d="M75.292 21.5153V22.8113H69.34V11.9313H70.732V21.5153H75.292ZM83.5137 21.5153V22.8113H77.4337V11.9313H83.3537V13.2433H78.8257V16.6513H82.8737V17.9633H78.8257V21.5153H83.5137ZM88.1577 21.7233C88.8297 21.7233 89.3471 21.5793 89.7097 21.2913C90.0724 20.9926 90.2537 20.5606 90.2537 19.9953C90.2537 19.526 90.1257 19.1313 89.8697 18.8113C89.6244 18.4913 89.2191 18.246 88.6537 18.0753L87.3577 17.6913C86.5471 17.446 85.9497 17.078 85.5657 16.5873C85.1817 16.086 84.9897 15.4726 84.9897 14.7473C84.9897 14.1926 85.0964 13.6913 85.3097 13.2433C85.5337 12.7953 85.8857 12.438 86.3657 12.1713C86.8564 11.9046 87.4964 11.7713 88.2857 11.7713C88.7657 11.7713 89.2617 11.83 89.7737 11.9473C90.2857 12.054 90.8031 12.23 91.3257 12.4753L90.8777 13.6753C90.3657 13.4513 89.9017 13.2913 89.4857 13.1953C89.0804 13.0886 88.6911 13.0353 88.3177 13.0353C87.7097 13.0353 87.2351 13.1633 86.8937 13.4193C86.5631 13.6646 86.3977 14.0753 86.3977 14.6513C86.3977 15.0673 86.5097 15.4193 86.7337 15.7073C86.9577 15.9846 87.3577 16.214 87.9337 16.3953L89.2297 16.7793C90.8511 17.2593 91.6617 18.294 91.6617 19.8833C91.6617 20.8006 91.3844 21.5473 90.8297 22.1233C90.2751 22.6886 89.3844 22.9713 88.1577 22.9713C87.6564 22.9713 87.1231 22.9126 86.5577 22.7953C86.0031 22.6673 85.4271 22.47 84.8297 22.2033L85.2617 21.0193C85.8271 21.2753 86.3337 21.4566 86.7817 21.5633C87.2404 21.67 87.6991 21.7233 88.1577 21.7233Z" fill="black"/>
<path fill-rule="evenodd" clip-rule="evenodd" d="M29.8382 4.40395C28.1709 4.4087 27.3172 4.47125 26.1094 4.6729C25.2297 4.81976 24.4687 4.96599 24.4183 4.99785C24.3678 5.02972 23.8629 5.193 23.2962 5.36071C22.7296 5.52842 22.1479 5.74393 22.0035 5.83961C21.8592 5.93529 21.4994 6.09662 21.204 6.19811C20.9086 6.29959 20.4419 6.4192 20.167 6.46389C19.7193 6.53667 19.6339 6.50866 19.3493 6.19555C19.1837 6.01333 18.9526 5.68865 18.8624 5.48158L18.8672 5.4695C16.4559 1.4872 14.4707 0.469738 9.6766 0.807787C7.23621 0.982179 4.30061 2.48309 2.10578 5.1795C0.414167 7.25813 -0.12633 9.38149 0.023961 11.1567C0.175687 12.097 0.657076 12.4312 1.27956 12.7637C1.86937 13.087 2.69489 13.1355 3.4542 13.0878C3.50494 13.0872 3.55562 13.0779 3.60629 13.0687C3.63145 13.0641 3.65662 13.0595 3.68179 13.0559C2.77284 14.2707 1.9575 16.0866 2.64335 17.2245C3.00984 17.9582 4.39952 17.9806 5.23469 17.9223C5.7551 17.8676 6.2638 17.7354 6.75045 17.5743C6.39963 18.229 6.19111 18.9889 6.67489 19.5367C6.70789 19.5752 6.74079 19.604 6.77368 19.6328C6.83933 19.6805 6.90504 19.7283 6.98133 19.7565C7.15563 19.8128 7.3511 19.8201 7.53529 19.7888C8.64157 19.7078 9.95354 18.6145 10.845 17.7688C10.7416 18.2265 10.7145 18.7124 10.9138 19.0595C10.947 19.1174 11.0019 19.1751 11.0676 19.2228C11.1333 19.2706 11.2205 19.3085 11.2967 19.327C11.4924 19.3538 11.6877 19.3417 11.8825 19.2909C11.9445 19.2728 12.0053 19.2529 12.065 19.2315L12.0254 19.3659C11.8289 20.0304 11.6039 21.095 11.5255 21.7316C11.4392 22.4319 11.4106 23.5193 11.453 24.4851C11.5063 25.6967 11.5994 26.3451 11.8395 27.1774C12.0134 27.7803 12.3395 28.6032 12.5641 29.0059C12.7887 29.4086 13.0118 29.7984 13.06 29.8722L13.4613 30.4861C13.6338 30.75 14.2862 31.4576 14.9112 32.0586C15.6343 32.7538 16.5025 33.4316 17.2986 33.922C18.0241 34.3691 19.1948 34.9411 20.0856 35.2839C20.9305 35.6091 22.2931 36.0214 23.1136 36.2003C23.9342 36.3792 25.4111 36.6239 26.3958 36.7441C27.3539 36.861 28.8797 36.9629 29.8382 36.9749L29.8429 36.9749L29.846 36.9748L29.8477 36.9748C30.8062 36.9628 32.332 36.861 33.2901 36.7441C34.2747 36.6239 35.7517 36.3792 36.5723 36.2003C37.3928 36.0214 38.7554 35.6091 39.6002 35.2839C40.4911 34.9411 41.6617 34.3691 42.3873 33.922C43.1833 33.4316 44.0516 32.7538 44.7747 32.0586C45.3996 31.4576 46.0521 30.75 46.2246 30.4861L46.6258 29.8722C46.674 29.7984 46.8972 29.4086 47.1218 29.0059C47.3464 28.6032 47.6724 27.7803 47.8464 27.1774C48.0865 26.3451 48.1795 25.6967 48.2328 24.4851C48.2753 23.5193 48.2467 22.4319 48.1604 21.7316C48.0819 21.095 47.857 20.0304 47.6605 19.3659L47.6209 19.2315C47.6805 19.2529 47.7414 19.2728 47.8034 19.2909C47.9982 19.3417 48.1935 19.3538 48.3891 19.327C48.4653 19.3085 48.5526 19.2706 48.6183 19.2228C48.6839 19.1751 48.7389 19.1174 48.7721 19.0595C48.9714 18.7124 48.9443 18.2265 48.8409 17.7688C49.7323 18.6145 51.0443 19.7078 52.1506 19.7888C52.3348 19.8201 52.5302 19.8128 52.7045 19.7565C52.7808 19.7283 52.8465 19.6805 52.9121 19.6328C52.945 19.604 52.978 19.5752 53.011 19.5367C53.4948 18.9889 53.2862 18.229 52.9354 17.5743C53.4221 17.7354 53.9308 17.8676 54.4512 17.9223C55.2863 17.9806 56.676 17.9582 57.0425 17.2245C57.7284 16.0866 56.913 14.2707 56.0041 13.0559C56.0176 13.0578 56.0312 13.06 56.0447 13.0624L56.0674 13.0664L56.0796 13.0687C56.1303 13.0779 56.1809 13.0872 56.2317 13.0878C56.991 13.1355 57.8165 13.087 58.4063 12.7637C59.0288 12.4312 59.5102 12.097 59.6619 11.1567C59.8122 9.38149 59.2717 7.25813 57.5801 5.1795C55.3853 2.48309 52.4496 0.982179 50.0093 0.807787C45.2152 0.469738 43.23 1.4872 40.8187 5.4695L40.8235 5.48158C40.7333 5.68865 40.5021 6.01333 40.3365 6.19555C40.052 6.50866 39.9666 6.53667 39.5189 6.46389C39.2439 6.4192 38.7773 6.29959 38.4819 6.19811C38.1865 6.09662 37.8267 5.93529 37.6824 5.83961C37.538 5.74393 36.9563 5.52842 36.3896 5.36071C35.823 5.193 35.3181 5.02972 35.2676 4.99785C35.2171 4.96599 34.4561 4.81976 33.5765 4.6729C32.3687 4.47125 31.515 4.40868 29.8477 4.40393L29.8382 4.40395ZM22.875 19.6198C22.9844 19.8994 23.0445 20.2045 23.0445 20.524C23.0445 21.8704 21.9758 22.9619 20.6575 22.9619C19.3392 22.9619 18.2704 21.8704 18.2704 20.524C18.2704 19.1775 19.3392 18.086 20.6575 18.086C21.6132 18.086 22.4377 18.6596 22.819 19.4881C22.8386 19.5276 22.855 19.5647 22.8673 19.5979C22.8699 19.6049 22.8725 19.6122 22.875 19.6198ZM39.0378 18.086C38.1558 18.086 37.3854 18.5746 36.9722 19.3013C36.9046 19.41 36.849 19.5156 36.8185 19.5979C36.8054 19.6335 36.7927 19.6778 36.7807 19.7285C36.6965 19.9778 36.6508 20.2454 36.6508 20.524C36.6508 21.8704 37.7195 22.9619 39.0378 22.9619C40.3562 22.9619 41.4249 21.8704 41.4249 20.524C41.4249 19.1775 40.3562 18.086 39.0378 18.086ZM29.6175 18.1057C28.5549 18.2352 27.5414 19.1265 26.7441 20.635C26.5625 20.9803 26.2464 21.7226 26.1247 22.096C25.4073 24.2821 25.3601 26.5287 25.9976 28.2681C26.3917 29.3493 26.9729 30.1478 27.7685 30.7089C28.2026 31.0153 28.6349 31.2031 29.1616 31.3132C29.4249 31.3693 29.9807 31.3908 30.2586 31.3563C31.9242 31.1556 33.2755 29.8219 33.8476 27.8192C33.9748 27.379 34.0601 26.9128 34.1128 26.3798C34.1546 25.9719 34.1546 25.1583 34.1146 24.7008C34.0147 23.5743 33.755 22.4737 33.3536 21.4831C33.0085 20.6328 32.6416 19.9962 32.1621 19.4113C31.5028 18.6107 30.8271 18.1899 30.0588 18.1035C29.8427 18.0798 29.8372 18.0798 29.6175 18.1057Z" fill="black"/>
<path d="M3.99033 55.0195C6.22614 48.3633 13.4325 40.8275 19.4168 36.47C19.649 36.5719 19.8751 36.6657 20.0856 36.7467C20.9305 37.0718 22.2931 37.4842 23.1136 37.6631C23.9342 37.842 25.4111 38.0867 26.3958 38.2069C27.3539 38.3238 28.8797 38.4257 29.8382 38.4377L29.8429 38.4377H29.8442L29.8453 38.4376L29.8465 38.4376L29.8477 38.4376C30.8062 38.4256 32.332 38.3238 33.2901 38.2069C34.2747 38.0867 35.7517 37.842 36.5723 37.6631C37.3928 37.4842 38.7554 37.0718 39.6002 36.7467C39.7109 36.7041 39.8259 36.658 39.9439 36.609C42.153 36.06 43.9032 35.3638 45.4884 34.7332C48.0133 33.7287 50.1198 32.8908 52.9957 33.0795C55.2698 33.0795 54.494 36.3717 53.6292 37.1748C48.8213 41.64 41.2683 45.5572 36.6714 46.5244C36.5435 46.8957 36.2701 47.5039 36.0023 48.0474L35.9765 48.0384C32.4379 46.8014 29.0974 46.4212 26.1082 47.2176C23.1053 48.0177 20.5197 49.9886 18.4741 53.3292C18.3299 53.5647 18.4039 53.8725 18.6394 54.0167C18.8749 54.161 19.1827 54.0869 19.3269 53.8514C21.2604 50.6939 23.6486 48.9078 26.3656 48.1839C29.0651 47.4647 32.1503 47.7778 35.5291 48.9417C35.5289 48.942 35.5287 48.9423 35.5285 48.9427C35.5326 48.9437 35.5368 48.9447 35.541 48.9458C35.5761 48.9579 35.6113 48.9701 35.6465 48.9824L36.1185 49.1474L36.1328 49.1065C42.2137 50.9018 47.438 56.8662 47.3594 61.0485C48.935 59.5977 52.7358 58.2598 55.1236 60.8066L55.0749 60.8873C55.1073 60.9033 55.1236 60.9357 55.1236 60.9357C55.221 61.0485 55.2698 61.1774 55.2698 61.3226C55.2545 61.5491 55.0824 61.7049 54.9003 61.8696L54.8637 61.9027C50.7845 65.8485 49.5698 68.4728 48.6743 70.4073C48.5858 70.5986 48.5 70.7838 48.4153 70.9622C48.3077 71.1922 48.2069 71.4197 48.1077 71.6435L48.1068 71.6457C47.532 72.9427 47.0127 74.1145 45.5726 74.9116C44.858 75.3146 43.656 75.5241 42.6814 75.5241C41.3819 75.5241 40.0012 74.8794 39.1729 74.3958C38.6856 74.9116 38.1983 75.3468 37.711 75.7015C33.2929 78.861 26.3571 80.3762 20.3635 80.3762C17.9108 80.3762 16.2376 80.3278 14.3048 79.9893L13.7525 79.8926C7.27148 78.5707 4.49393 74.4442 3.47061 71.1717C2.46357 68.4474 1.45653 62.5637 3.99033 55.0195Z" fill="black"/>
</svg>
